<svg xmlns="http://www.w3.org/2000/svg" stroke="#000" stroke-width="50" stroke-linecap="round" viewBox="0 0 2600 3000"><path fill="#4caf50" d="m1920 2880c-165-40-256-122-643-575-110-129-240-281-290-339l-90-105-5 482c-3 301-9 485-15 490-22 21-130 35-316 39-165 5-205 3-255-12-84-24-143-70-181-140-42-77-42-96-43-1377V115l23-4c154-31 340-46 436-35 128 16 183 34 235 81 101 88 106 117 106 596 0 223 4 392 9 390 5-1 57-59 117-128 59-69 153-177 208-241 56-63 213-244 350-402l249-287h49c81 0 229 30 295 60 98 45 188 138 220 230 21 57 16 181-8 247-43 117-101 186-446 534-183 184-333 339-333 343s15 25 33 45c51 59 597 652 735 799l125 132-6 61c-21 200-217 360-437 358l-99-9"/></svg>