<svg xmlns="http://www.w3.org/2000/svg" viewBox="0 0 63 35"><path d="m7 17c9 10 21 21 34 8-8 18-29 7-36-7m-5-7h3v7Q18-1 32 0C20 2 14 11 3 22v2H0V14m15 1v7q0 2 2 2v-9h-2m1-1a1 1 0 010-3C28-4 40-1 48 8l-5 1Q33-2 16 11a1 1 0 010 3m5 1h-2v9h2v-5c0-3 5-3 5 0v5h2v-5c0-5-5-5-7-3m21 1v5a1 1 0 01-11-8q4-5 10-1l-2 2a1 1 0 00-5 6q3 2 6 0 0-2-4-2-1-2 6-2m6-3v3q-1 0-3 2v5q-4 9-15 11 9-2 13-12v-8h2c0 2 1-1 3-1m2 10v-9h2v9h-2m1-10a1 1 0 000-3 1 1 0 000 3m10 6v4h2V11h-2v6c-1-3-7-3-7 2 0 4 2 6 7 4v-3c-1 3-4 3-5 1-2-5 5-6 5-1" fill="currentColor"/></svg>