<svg xmlns="http://www.w3.org/2000/svg" fill="#0000" viewBox="0 0 15000 3310"><path fill="#9e9e9e" d="M7930 3300c-586-64-998-328-1211-774-94-198-131-383-131-651 1-267 40-451 141-660 201-413 587-687 1101-780 124-23 435-31 568-16 333 39 578 164 664 339 30 61 33 75 33 158-1 82-4 97-34 158-37 75-130 176-161 176-11 0-60-20-108-44-113-56-259-110-347-127-113-22-351-17-460 9-274 68-474 260-540 520-37 144-37 386 0 527 8 33 36 103 62 155 82 168 230 285 429 341 64 18 105 23 219 23 132 0 183-7 258-36l27-10v-418l-242-2-243-3-33-98c-29-84-34-113-34-196-1-155 39-242 136-294 41-22 46-22 521-22h481l49 26c57 29 109 91 127 152 10 32 13 172 13 582 0 505-1 544-19 595-57 163-320 294-716 355-126 19-432 27-550 15m5860 3c-471-44-802-249-974-603-86-176-119-331-119-565-1-297 56-512 186-707 156-234 379-374 708-445 126-27 437-25 532 4l67 20v-727l23-5c12-3 42-10 67-15 74-18 370-25 442-10 111 22 176 70 220 165l23 50 3 1169c3 1274 5 1226-53 1315-107 167-438 317-774 351-96 9-270 11-351 3m230-623c36-6 89-22 118-36l52-25v-997l-42-18c-56-23-218-30-301-14-133 26-244 110-298 224-42 89-59 182-59 321 0 263 74 422 233 500 101 49 186 62 297 45m-4110 580c-66-14-147-57-175-94-13-18-35-54-47-82l-23-49-3-770c-3-867-5-846 69-950 118-164 482-309 865-346 299-28 513 40 583 184 34 70 45 171 27 255-8 39-24 91-34 115l-20 44-118 7c-188 12-451 60-566 105l-28 10-2 773-3 773-60 13c-74 16-404 24-465 12m1877 0c-108-19-196-91-233-192-18-51-19-96-22-1030-3-930-2-977 15-981 155-44 481-48 585-8 41 16 70 37 102 73 86 94 80 25 84 1130l3 977-23 6c-139 32-394 44-511 25m561.92-2835.507c0 233.988-189.684 423.672-423.672 423.672-233.987 0-423.672-189.684-423.672-423.672s189.685-423.672 423.672-423.672 423.672 189.684 423.672 423.672"/><path fill="#4caf50" d="M1878 3250c-165-40-256-122-643-575-110-129-240-281-290-339l-90-105-5 482c-3 301-9 485-15 490-22 21-130 35-316 39-165 5-205 3-255-12-84-24-143-70-181-140-42-77-42-96-43-1377v-1228l23-4c154-31 340-46 436-35 128 16 183 34 235 81 101 88 106 117 106 596 0 223 4 392 9 390 5-1 57-59 117-128 59-69 153-177 208-241 56-63 213-244 350-402l249-287h49c81 0 229 30 295 60 98 45 188 138 220 230 21 57 16 181-8 247-43 117-101 186-446 534-183 184-333 339-333 343s15 25 33 45c51 59 597 652 735 799l125 132-6 61c-21 200-217 360-437 358-36 0-91-7-122-14m1177 5c-122-22-204-80-246-173l-24-52-3-987-2-987 37-7c21-3 56-10 78-15s99-12 170-15c236-12 356 24 427 127 20 30 42 72 49 94 10 30 14 273 16 1004 2 530 0 968-4 972-31 31-389 59-498 39m1246-1c-149-25-233-107-260-254-7-39-11-302-11-780 0-790 0-794 59-878 207-298 862-462 1398-351 43 9 85 17 94 19 32 6 174 66 219 92 187 108 310 262 371 463 23 75 23 76 27 866l3 791-39 11c-59 18-172 27-327 26-152 0-223-14-286-57-39-26-93-101-111-155-8-27-13-213-17-672-5-493-9-642-19-665-46-104-170-153-337-134-109 12-112 13-188 47l-67 31v1569l-27 7c-126 32-362 44-482 24m-715.59-2834.8c0 231.457-187.633 419.09-419.09 419.09s-419.089-187.633-419.089-419.09 187.633-419.089 419.09-419.089 419.09 187.633 419.09 419.09"/></svg>