<svg xmlns="http://www.w3.org/2000/svg" viewBox="0 0 115 15"><path d="m0 14L2.5 0h15L15 14H6.3l.6-3h5.2l.4-2.4H7.3l.6-3H13l.4-2.4H5.5L3.5 14" fill="#336cff"/><path d="m112 9c-6-.5-6.6 4.6.3 2v2c-9.3 4.4-12-6.4-.1-5.6q.2-2.7-6.5-.8l-.7-2.1q10-3 10 2.5v7h-3m-9.3-3.6Q100 12 98 11a1.3 1 20 014.7-4l.9-2q-1.1-1.6-4.6-1.5a1 1 0 000 10.6q3 .2 5-1.8M91.5 3a1 1 0 010-3 1 1 0 010 3M93 14V4h-3v10m-10 0V7q4-2 5 0v7h3V6q-1-4-8-1V4h-3v10m-7-2.4A1 1 0 0070 6a1 1 0 000 5.6V14a1 1 0 010-10.5A1 1 0 0170 14M55 6h1.6v4q-.1 2 1 3 2.8 2 6.1.1L63 11c-1 1-3.6 1-3.5-1V6h3.9V4h-3.9V1.2h-2.9V4H55M27 0v14h3V8h8V6h-8V3h8V0m1 0v14h3V0m12 14V7q0-5-10-2.6l.6 2.2q6.4-2.2 6.5.8C38.6 6.8 43 17 51 13.1v-1.9c-5.3 2.2-7.7-2.2 0-2V14" fill="#080a15"/></svg>