<svg xmlns="http://www.w3.org/2000/svg" width="1500" height="1500" fill="#0000" viewBox="0 0 15000 15000"><path d="M0 6734c394-59 659-191 716-354 18-51 19-90 19-565 0-385-3-520-13-552-18-61-70-123-127-152l-49-26h-451c-420 0-452 1-485 19-137 73-177 233-107 436l32 95 243 3 242 2v478l-27 10c-79 31-125 37-288 36-145 0-181-3-249-22-200-57-347-174-429-342-58-118-75-183-88-333-11-134 0-306 26-409 66-259 266-451 540-520 76-19 118-22 270-23 114 0 206 5 250 14 86 16 234 70 338 123l78 39 29-21c37-26 94-105 121-166 75-167-30-349-266-465-179-87-398-125-664-116-618 21-1116 316-1352 802-97 200-140 393-140 630-1 238 40 432 130 621 213 446 625 710 1211 774 113 12 360 4 490-16m5661 16c336-34 667-184 774-351 57-89 56-44 53-1285l-3-1139-23-50c-64-140-170-183-420-172-75 4-157 11-182 17-25 5-55 12-67 15l-23 5v730h-25c-14 0-60-10-102-22-103-30-342-32-472-5-328 70-552 211-708 445-126 189-186 409-185 677 1 342 114 623 333 830 247 232 639 346 1050 305m-12025-44c159-42 291-173 318-315 6-32 1-39-118-165-137-145-682-738-733-797-25-28-33-47-33-75 0-36 14-52 333-373 226-228 348-359 379-406 126-193 116-330-32-469-28-26-79-60-113-76-54-24-211-60-265-60-12 0-111 107-268 287-137 157-312 359-389 448-77 88-171 197-210 243-64 75-73 81-107 82h-38v-392c0-405-4-448-43-524-26-51-103-111-165-131-96-30-330-24-509 13l-23 4v1198c1 1250 1 1271 43 1347 38 71 97 116 182 140 49 15 87 17 225 12 178-5 268-20 288-45 9-12 12-126 12-489v-473h34c38 0 6-34 411 440 247 289 329 378 423 457 82 68 135 97 220 118 74 17 115 18 178 1m1349-11c44-9 83-19 88-24 14-14 3-1869-12-1916-22-72-81-145-141-176-101-53-279-61-473-24-43 8-81 15-83 15s-3 431-2 958l3 957 24 52c42 93 124 151 246 173 67 12 251 4 350-15m1165 15c41-6 99-15 128-21l52-10v-1570l73-34c59-26 96-35 185-45 224-23 353 25 397 149 13 37 15 127 15 625 0 352 4 606 10 645 35 214 190 294 508 262 70-6 144-17 165-23l38-11-3-761c-4-759-4-761-27-836-119-393-471-603-1011-604-189 0-301 14-470 60-247 67-446 185-541 321-59 84-59 91-59 848 0 727 2 771 45 856 66 130 238 182 495 149m5745-12 60-13 3-773 2-773 28-10c114-44 337-86 542-102l145-12 24-60c29-74 38-166 21-234-42-176-251-269-546-241-380 35-745 182-863 345-74 104-72 86-69 920l3 740 23 49c12 28 34 64 47 82 28 37 109 80 175 94 59 12 329 4 405-12m1805 7c52-8 105-17 118-20l23-6-3-947c-4-1071 1-1006-84-1100-64-72-124-93-279-100-108-4-266 11-348 35-17 4-18 50-15 951 3 904 4 949 22 1000 37 101 125 173 233 192 80 13 232 11 333-5m160.144-2800.29c0-212.793-172.504-385.297-385.298-385.297-212.793 0-385.297 172.504-385.297 385.297s172.504 385.298 385.297 385.298 385.298-172.504 385.298-385.298m-8763.691-.264c0-209.994-170.234-380.227-380.228-380.227-209.993 0-380.227 170.233-380.227 380.227s170.234 380.228 380.227 380.228c209.994 0 380.228-170.234 380.228-380.228M8450 10389c469-11 964-31 1340-54 313-20 734-55 728-60-8-7-333-27-668-41-797-33-4227-29-5100 6-312 12-563 30-573 39-11 11 176 27 640 56 1064 65 2340 84 3633 54m-462-435 30-6-73-149c-113-231-197-508-245-800-22-140-60-488-60-552 0-49-17-30 677-753l404-421 106-6c58-4 370-7 692-7h586l32 49c55 85 176 149 256 137 140-22 261-155 261-286 0-143-141-284-284-284-94 0-213 77-251 162l-14 32H8709l-502 504c-318 319-519 514-549 531-35 19-58 25-90 23-41-3-43-4-50-43-4-22-7-118-7-213l-1-173 93-97c194-203 660-706 818-884l104-117h365l365-1 255-270 255-269 430-1h430l19 35c48 88 162 159 256 159 147 0 295-148 294-294-1-148-148-295-294-294-97 0-201 66-257 161l-25 43h-860l-275 270-275 270h-726l-233 243c-287 299-530 539-586 578-47 33-97 38-109 12-4-10-9-111-12-225l-4-206 388-414 388-413 385-5 385-5 309-327 309-328h1196l26 44c53 91 168 160 266 160 111 0 226-78 282-192 56-113 36-227-57-331-53-58-153-106-224-105-104 0-216 70-273 171l-30 53-591 1h-592l-340 334-340 335h-130c-71 0-181-3-243-7l-113-6 3-33c4-40 196-256 939-1051l114-122 462-1h461l26 44c53 91 168 160 266 160 111 0 226-78 282-192 56-113 36-227-57-331-53-58-153-106-224-105-107 0-223 75-277 179l-29 55h-397c-258 0-416 4-450 11-120 26-228 104-388 280-47 52-156 167-244 257-156 158-160 162-201 162h-42l-7-61c-3-34-6-163-6-287v-225l237-246c131-135 335-345 455-465l217-219 53 8c97 15 143 10 212-24 112-55 190-170 190-281 0-67-35-149-89-209-53-58-153-106-224-105-110 0-226 77-280 185-39 78-46 131-27 194 9 28 16 62 16 77 0 48-74 131-572 639l-358 367v468l-1 469-350 370c-193 204-409 430-482 503-115 116-136 132-164 132h-33v-529l330-343 329-343 1-460v-460l350-370 349-370 1-431v-431l322-312 322-313 71 7c130 14 167 11 236-22 125-58 214-187 214-308 0-168-172-340-340-340-120 0-250 89-306 210-41 86-46 137-20 212 37 111 61 79-334 473l-355 355v841l-262 274c-143 151-391 409-550 573-265 271-293 297-323 297h-33l-6-137c-4-76-9-192-12-258l-6-120 291-318 291-319v-893l185-197 185-197v-768l40-18c102-46 195-188 195-300 0-168-172-340-340-340s-340 172-340 340c0 113 86 245 196 300 40 21 47 29 53 62 3 21 8 182 12 358l6 320-181 185-180 185-1 447v446l-192 185c-274 262-292 277-333 277-29 0-38-6-63-42-43-62-70-120-83-175-8-31-14-219-18-548l-6-500-85-42c-207-101-362-130-520-98-224 46-411 147-566 306-267 275-359 640-244 972 42 122 200 477 213 477 2 0 47-22 101-49 101-52 200-79 365-100 47-6 89-15 93-19 5-5-31-52-81-108-81-88-91-102-91-136 0-37 1-38 34-38 39 0 109 54 198 154 79 89 246 216 284 216 24 0-48-231-161-510-93-232-154-411-162-482l-6-48h35c20 0 40 6 46 13 5 6 49 86 97 177s143 264 211 385l124 221v234c-1 710-44 2033-90 2790-14 216-12 210-56 210-34 0-51-15-273-242-461-473-986-1033-1189-1270-373-435-612-802-612-938v-41l42 3c41 3 45 7 143 128 56 71 210 236 354 380 252 252 255 255 262 225 4-16 7-143 8-282 1-294 9-345 77-523l47-124-54-48c-115-104-373-251-514-295-80-24-334-24-445 0-151 33-289 125-436 289-168 188-203 463-97 763 56 159 179 329 303 420 86 63 437 161 650 181 41 3 81 11 88 17s31 47 53 91c48 96 133 220 283 415 108 140 470 579 586 711 198 224 501 598 511 629 16 54 31 629 24 936-15 685-56 946-204 1313-48 118-49 122-28 123 242 15 1333 17 1405 3M5540 7916c254-60 454-154 637-301 85-68 202-192 227-240 13-26 13-32-6-69-32-63-184-209-240-230-43-17-50-17-101-2-66 19-124 69-252 216-82 95-89 100-126 100h-39v-43c0-44 27-97 92-180 17-21 28-40 26-42-6-7-231 56-403 111-189 61-280 84-332 84h-43v-91l83-39c113-53 335-127 567-189 261-70 400-113 400-122 0-11-79-78-113-95-23-12-38-13-95-2-93 17-505 17-597 0-87-17-171-56-354-166-79-47-148-86-152-86s-42 23-83 51c-97 64-192 175-250 291-59 115-69 172-64 338 6 161 20 203 108 337 142 216 346 344 624 389 124 21 355 11 486-20m95-1271c59-9 119-18 132-21 23-6 23-7 7-33-43-65-403-513-463-575-120-124-261-198-432-225-138-23-183-13-223 50-43 68-37 146 19 274 90 204 319 414 535 493 155 56 236 63 425 37m-1250-240c101-6 226-22 234-30 2-3-19-54-48-114-76-161-102-242-108-342l-6-86-158-48c-87-26-181-58-209-71-48-22-50-25-50-64v-40h79c57 0 106 8 182 30 106 31 199 48 199 36 0-3-30-38-66-77-36-40-83-98-105-130-52-76-141-246-175-334s-49-105-89-105c-48 0-161 37-230 75-129 71-300 247-359 367-34 71-60 223-51 302 34 296 254 532 575 617 63 16 176 27 235 23 28-2 95-6 150-9m2474-365c7-33 16-104 20-157 13-154 1-185-155-398-216-296-303-452-312-561l-5-64h35c44 0 64 22 160 170 117 182 335 438 351 413 27-44 47-389 47-825v-318l-47-24c-187-94-426-122-575-69-329 119-552 538-509 957 26 259 102 407 295 578 180 159 467 355 474 324 2-8-11-58-27-111-19-58-31-116-31-150v-55h35c40 0 46 9 101 152 19 50 51 122 71 161 43 80 52 77 72-23M4100 4736c5-13 14-62 20-108 25-185 95-322 243-475l88-91-48-22c-70-31-417-178-476-201-85-34-107-54-107-101v-41l73 5c79 6 106 14 413 129 116 43 243 86 282 95 66 15 77 15 154-1 45-9 86-19 90-22 5-2-4-14-19-25-76-57-103-91-103-130 0-36 1-38 34-38 20 0 77 22 147 56 150 74 217 98 379 139 225 56 324 100 528 237l103 69-26-51c-119-235-193-312-575-602-333-252-493-350-713-437-189-75-390-108-550-91-369 41-635 235-743 541-35 100-44 264-20 372 43 192 188 404 376 547 136 103 401 269 433 270 4 0 12-11 17-24m1575-1168c-21-244-31-279-145-518-156-328-185-434-185-685 0-186 11-248 64-360 57-121 124-192 305-320l68-49-67-34c-180-90-416-142-559-122-308 44-529 248-590 542-28 134-15 275 40 450 77 242 264 530 468 715 165 151 561 453 594 453 10 0 12-16 7-72m102-673c71-138 200-293 342-411 50-42 91-78 91-80s-13-23-30-46c-21-29-30-53-30-80 0-37 1-38 38-38 28 0 51 11 97 46 69 52 52 52 294 9 201-35 253-34 471 12 60 13-241-256-406-363-230-148-474-222-646-194-182 29-366 173-452 353-111 234-84 445 106 837l61 125 17-55c9-30 31-82 47-115m1351-1032c-73-69-190-185-260-256-119-121-128-133-128-169 0-38 0-38 39-38 30 0 52 10 97 44 73 54 197 158 303 255l81 73v-123c0-192-32-308-122-446-146-223-362-335-601-311-138 14-255 104-328 253-64 132-70 235-18 355 26 60 61 92 126 116 245 89 366 153 506 263 74 59 324-288 397 365l35 37 3-146 3-146z"/><path d="M13820 13689c-79-13-191-71-236-122-48-55-91-147-109-233-20-92-20-346 0-438 41-195 162-321 342-356 88-18 306-9 361 14l42 18v1057l-52 25c-87 42-221 55-348 35m-3271.445-6524.982c0 97.175-78.776 175.952-175.952 175.952-97.175 0-175.952-78.777-175.952-175.952 0-97.176 78.777-175.952 175.952-175.952 97.176 0 175.952 78.776 175.952 175.952m535.416-1199.938c0 97.384-78.946 176.33-176.33 176.33s-176.33-78.946-176.33-176.33 78.946-176.33 176.33-176.33 176.33 78.945 176.33 176.33M5124 5558c-16-12-75-62-131-112-92-80-103-93-103-123 0-32 1-33 44-33 64 0 178 60 218 114 44 61 68 111 68 146 0 27-3 30-34 30-19 0-46-9-62-22m2446-105c0-10-5-116-10-236l-10-219 31-36c17-21 115-124 216-229 176-184 186-193 222-193h38l7 53c3 28 6 140 6 247v195l-218 218c-193 193-221 217-250 217-24 0-32-4-32-17m3798.287-236.244c0 97.332-78.904 176.236-176.236 176.236s-176.236-78.904-176.236-176.236 78.904-176.236 176.236-176.236 176.236 78.904 176.236 176.236m-380.103-758.197c0 97.318-78.891 176.21-176.209 176.21s-176.21-78.892-176.21-176.21 78.892-176.21 176.21-176.21 176.21 78.892 176.21 176.21m-987.913-1161.833c0 97.498-79.038 176.537-176.537 176.537s-176.537-79.039-176.537-176.537c0-97.5 79.038-176.538 176.537-176.538s176.537 79.039 176.537 176.538m-39.642-1596.015c0 114.005-92.42 206.424-206.424 206.424s-206.424-92.42-206.424-206.424 92.419-206.424 206.424-206.424 206.424 92.42 206.424 206.424m-1345.59-642.173c0 122.398-99.224 221.621-221.621 221.621s-221.621-99.223-221.621-221.62c0-122.399 99.223-221.622 221.62-221.622s221.621 99.223 221.621 221.621M8285 1256"/><g fill="#009d4a"><path d="M6845 10433c-580-5-1511-35-1980-63-517-31-830-61-848-79-63-63 653-96 2326-108l967-6v263l-107-2c-60-2-220-4-358-5m32-443c-236-4-341-10-349-18-9-9 4-51 54-179 78-197 99-263 126-398 45-216 67-468 77-890 7-279-9-844-24-896-10-31-313-405-511-629-116-132-478-571-586-711-150-195-235-319-283-415-22-44-46-85-53-91s-47-14-88-17c-213-20-564-118-650-181-124-91-247-261-303-420-46-131-60-209-60-350 0-148 21-252 71-352 59-116 239-290 367-354 119-59 197-72 415-73s242 4 425 96c144 72 258 146 343 225l63 58-51 130c-83 211-82 202-89 557-4 226-10 321-18 329-9 9-23 4-60-26-93-74-509-502-605-622-54-67-102-125-108-128-65-40 58 209 209 425 225 322 476 609 1150 1320 422 444 663 685 671 670 9-17 24-244 45-690 32-657 45-1077 57-1761l12-706-126-224c-69-123-165-298-213-389s-93-172-101-180c-32-33 47 203 161 485 148 367 192 555 128 555-30 0-114-44-173-90-30-23-105-94-167-156-105-106-153-146-153-126 0 4 43 54 95 111s97 113 101 124c9 29-16 44-99 56-40 6-103 15-140 21-97 14-178 44-289 105-73 39-100 50-107 41-6-7-38-70-72-141-173-365-206-484-196-712 11-265 103-478 291-672 265-273 655-386 966-281 52 17 133 51 180 73l85 42 6 490c3 270 7 1949 8 3733l1 3242-47-2c-27-1-200-4-386-8M5171 5513c-43-85-78-121-155-158-41-21-79-36-86-33-13 4 238 228 257 228 2 0-5-17-16-37"/><path d="M5024 7966 c-278-45-482-173-624-389-93-141-102-173-108-368-3-104 0-186 7-221 18-83 79-203 151-292 90-111 235-215 284-202 12 3 87 44 166 92 178 107 267 149 345 164 98 18 329 23 455 10 235-25 220-25 273 10 52 35 119 108 114 124-5 17-108 50-355 116-399 107-722 225-722 265 0 23 45 15 224-41 274-86 450-135 532-148 46-7 84-12 84-10s-34 50-76 106c-82 110-112 163-100 175 4 5 35-23 69-62 33-38 97-107 142-152 68-67 90-84 135-97 122-36 196-10 314 114 105 110 132 168 106 234-15 41-144 180-232 251-184 147-382 240-638 301-131 31-414 42-546 20"/><path d="M5295 6675c-175-47-310-123-442-249-102-97-167-187-212-292-57-136-63-237-19-315 33-59 61-73 143-72 236 5 426 83 576 239 93 97 509 623 509 645 0 23-249 59-399 58-58 0-128-6-156-14"/><path d="M4085 6440c-318-34-580-237-664-514-45-147-33-363 25-484 59-120 230-296 359-367 82-45 184-75 260-75 74 0 81 6 119 105 34 87 123 258 175 333 21 31 73 95 116 142 88 97 102 118 83 124-58 18-138 8-287-34-104-30-201-39-201-20 0 18 91 55 259 105l158 48 6 86c6 103 33 183 121 371 43 91 60 137 52 142-19 11-154 27-314 38-166 11-164 11-267 0m2707-287c-30-42-75-138-115-244-21-52-44-104-52-115-14-18-14-18-15 8 0 14 16 77 35 139 44 140 43 163-5 167-42 3-152-60-312-179-359-267-460-422-490-751-37-399 110-758 383-935 39-25 96-54 127-65 56-20 215-39 263-32 190 26 264 46 372 100l47 24v348c0 508-20 820-54 868-11 15-15 15-42 1-68-35-238-236-369-437-45-69-92-134-105-145l-23-20 7 40c17 94 123 275 314 535 51 69 107 154 125 190 31 62 32 69 30 177-2 125-25 279-48 324-19 37-48 37-73 2M3973 4749c-177-93-387-243-484-345-121-129-214-291-245-430-25-116-16-334 19-433 91-255 278-424 562-506 237-68 516-50 776 50 228 88 389 186 729 443 343 260 411 325 510 487 63 103 142 269 130 273-13 5-75-31-205-118-202-135-302-180-525-235-162-41-229-65-379-139-63-31-117-53-120-50-9 9 105 110 140 124 62 26 23 58-103 84-146 30-205 19-503-94-303-115-425-150-425-122 0 16 50 48 111 72 170 67 549 234 549 242 0 5-46 58-103 116-161 168-231 300-256 487-16 116-27 145-56 145-13 0-68-23-122-51m1616-1105c-150-101-417-309-545-427-147-134-315-361-398-537-197-423-162-816 92-1052 203-187 505-234 823-128 154 51 279 114 279 140 0 3-37 33-82 65-197 140-260 206-319 330-50 106-64 176-63 330 0 219 34 340 185 656 102 214 123 283 139 472 13 142 8 207-14 207-7 0-50-25-97-56"/><path d="M5686 3087c-56-73-178-364-217-516-24-95-26-267-3-360 62-256 275-459 517-493 60-9 105-8 183 1 234 27 444 129 699 338 110 90 295 273 295 292 0 13-50 6-250-34-100-20-162-17-360 20-198 36-222 35-295-20-86-64-99-59-42 17 46 60 48 64 41 83-4 9-49 52-102 96-194 162-328 343-391 528-15 41-31 76-38 78-6 2-23-11-37-30"/><path d="M7143 2228c-408-391-493-450-858-583-27-10-64-32-81-49-36-36-69-119-79-197-24-189 97-425 257-503 105-51 304-54 443-6 215 74 398 293 451 540 14 69 19 360 5 394-6 16-23 4-117-81-132-120-295-257-347-291-113-75-1 54 273 315l195 185 5 121c6 150-1 259-17 264-7 3-65-47-130-109"/></g><path fill="#d6d6d6" d="M7930 14280c-586-64-998-328-1211-774-94-198-131-383-131-651 1-267 40-451 141-660 201-413 587-687 1101-780 124-23 435-31 568-16 333 39 578 164 664 339 30 61 33 75 33 158-1 82-4 97-34 158-37 75-130 176-161 176-11 0-60-20-108-44-113-56-259-110-347-127-113-22-351-17-460 9-274 68-474 260-540 520-37 144-37 386 0 527 8 33 36 103 62 155 82 168 230 285 429 341 64 18 105 23 219 23 132 0 183-7 258-36l27-10v-418l-242-2-243-3-33-98c-29-84-34-113-34-196-1-155 39-242 136-294 41-22 46-22 521-22h481l49 26c57 29 109 91 127 152 10 32 13 172 13 582 0 505-1 544-19 595-57 163-320 294-716 355-126 19-432 27-550 15m5860 3c-471-44-802-249-974-603-86-176-119-331-119-565-1-297 56-512 186-707 156-234 379-374 708-445 126-27 437-25 532 4l67 20v-727l23-5c12-3 42-10 67-15 74-18 370-25 442-10 111 22 176 70 220 165l23 50 3 1169c3 1274 5 1226-53 1315-107 167-438 317-774 351-96 9-270 11-351 3m230-623c36-6 89-22 118-36l52-25v-997l-42-18c-56-23-218-30-301-14-133 26-244 110-298 224-42 89-59 182-59 321 0 263 74 422 233 500 101 49 186 62 297 45m-4110 580c-66-14-147-57-175-94-13-18-35-54-47-82l-23-49-3-770c-3-867-5-846 69-950 118-164 482-309 865-346 299-28 513 40 583 184 34 70 45 171 27 255-8 39-24 91-34 115l-20 44-118 7c-188 12-451 60-566 105l-28 10-2 773-3 773-60 13c-74 16-404 24-465 12m1877 0c-108-19-196-91-233-192-18-51-19-96-22-1030-3-930-2-977 15-981 155-44 481-48 585-8 41 16 70 37 102 73 86 94 80 25 84 1130l3 977-23 6c-139 32-394 44-511 25m561.92-2835.507c0 233.988-189.684 423.672-423.672 423.672-233.987 0-423.672-189.684-423.672-423.672s189.685-423.672 423.672-423.672 423.672 189.684 423.672 423.672M11803 11805"/><path fill="#b0b0b0" d="M7280 10309v-132l1108 6c1119 6 1692 21 2064 52 181 16 208 20 208 36 0 17-45 27-195 43-605 63-1506 102-2807 121l-378 5zm0-4045c0-2487 3-3733 10-3729 6 4 10 153 10 413 0 224 5 463 10 531 8 113 12 131 44 195 19 39 46 84 59 100l23 29 55-48c30-26 141-131 246-232l193-185v-446l1-447 180-185 180-185-6-290c-7-371-5-360-64-390-67-33-129-100-165-175-28-58-31-75-31-155s3-97 31-155c39-83 101-145 184-184 58-28 75-31 155-31s97 3 155 31c83 39 145 101 184 184 28 58 31 75 31 155s-3 97-31 155c-35 74-105 148-164 175l-40 18v768l-185 197-185 197v893l-289 316-288 317 4 142c3 78 8 182 12 231l6 89 291-299c160-164 409-423 552-574l262-274v-841l355-355 354-355-21-60c-58-171 30-367 202-449 58-28 75-31 155-31s97 3 155 31c83 39 145 101 184 184 28 58 31 75 31 155s-3 97-31 155c-39 83-101 145-184 184-56 26-76 31-145 31-44 0-98-4-121-8l-40-9-322 313-322 312v431l-1 431-349 370-350 370v460l-1 460-329 343-330 343v474l130-130c71-72 289-299 484-505l355-375 1-469v-468l358-367c367-375 467-481 533-563l37-48-15-47c-20-67-12-166 19-235 36-78 89-132 166-170 59-29 76-33 152-33s93 4 152 33c77 38 130 92 167 171 22 47 26 70 26 141 0 99-26 168-90 239-75 83-228 130-330 102l-40-11-215 218c-119 119-322 328-453 463l-237 246v195c0 224 7 318 25 318 13 0 277-267 415-419 160-176 268-254 388-280 34-7 192-11 450-11h397l29-55c35-67 90-119 165-154 47-22 70-26 141-26 76 0 93 4 152 33 77 38 130 92 167 171 22 47 26 70 26 141 0 76-4 93-33 152-38 77-92 130-171 167-47 22-70 26-141 26s-94-4-140-26c-70-33-123-79-156-135l-26-44h-431l-432 1-114 122c-294 314-594 640-759 822l-180 200 87 6c47 4 142 7 211 8l125 1 340-335 340-334h592l591-1 30-53c37-65 88-112 162-146 46-22 69-26 140-26 76 0 93 4 152 33 77 38 130 92 167 171 22 47 26 70 26 141 0 76-4 93-33 152-38 77-92 130-171 167-47 22-70 26-141 26s-94-4-140-26c-70-33-123-79-156-135l-26-44H9732l-309 328-309 327-385 5-385 5-388 413-388 414 4 176c3 98 9 185 13 194 6 16 11 15 48-11 56-39 300-280 586-578l233-243h726l275-270 275-270h860l25-43c33-56 97-113 156-141 72-33 198-30 272 7 66 32 132 99 162 165 34 73 31 198-6 273-32 66-99 132-165 162-36 17-66 22-132 22s-96-5-132-22c-57-26-128-90-154-138l-19-35h-400l-400 1-255 269-255 270-365 1h-365l-104 117c-159 178-624 682-819 885l-94 98 4 174c2 123 7 178 16 187 32 32 97-26 614-544l507-508h1396l14-32c21-46 88-109 146-138 41-20 65-25 135-25s94 5 135 25c64 31 124 91 155 155 35 72 35 198 0 270-109 222-420 247-553 44l-32-49h-556c-306 0-604 3-662 6l-106 7-413 431c-368 384-466 487-626 657l-44 47 22 208c53 507 127 794 297 1147 47 98 83 181 79 184-8 8-361 22-588 23h-198zm3230.299 900.363c0-75.952-61.571-137.523-137.523-137.523s-137.523 61.571-137.523 137.523 61.57 137.523 137.523 137.523c75.952 0 137.523-61.571 137.523-137.523m534.699-1200.797c0-76.025-61.63-137.655-137.656-137.655-76.025 0-137.656 61.63-137.656 137.655s61.631 137.656 137.656 137.656 137.656-61.63 137.656-137.656M8038 4793c-2-116-7-215-11-219-10-10-35 15-258 249l-188 198 5 82c2 45 7 140 10 211l6 129 220-219 219-219zm3291.907 423.91c0-76.208-61.779-137.987-137.987-137.987-76.209 0-137.988 61.78-137.988 137.988s61.78 137.987 137.988 137.987 137.987-61.779 137.987-137.987m-379.942-758.192c0-76.312-61.863-138.174-138.174-138.174-76.31 0-138.173 61.862-138.173 138.174 0 76.31 61.862 138.173 138.173 138.173s138.174-61.862 138.174-138.173m-989.031-1161.194c0-76.18-61.755-137.935-137.934-137.935s-137.934 61.756-137.934 137.935 61.755 137.934 137.934 137.934c76.18 0 137.934-61.755 137.934-137.934m-38.996-1596.961c0-92.902-75.312-168.215-168.214-168.215s-168.214 75.313-168.214 168.215 75.312 168.214 168.214 168.214 168.214-75.312 168.214-168.214m-1345.47-642.047c0-101.18-82.022-183.201-183.201-183.201-101.18 0-183.202 82.022-183.202 183.201 0 101.18 82.022 183.202 183.202 183.202s183.201-82.022 183.201-183.202M8480 1220"/><path fill="#00af48" d="M1878 14235c-165-40-256-122-643-575-110-129-240-281-290-339l-90-105-5 482c-3 301-9 485-15 490-22 21-130 35-316 39-165 5-205 3-255-12-84-24-143-70-181-140-42-77-42-96-43-1377v-1228l23-4c154-31 340-46 436-35 128 16 183 34 235 81 101 88 106 117 106 596 0 223 4 392 9 390 5-1 57-59 117-128 59-69 153-177 208-241 56-63 213-244 350-402l249-287h49c81 0 229 30 295 60 98 45 188 138 220 230 21 57 16 181-8 247-43 117-101 186-446 534-183 184-333 339-333 343s15 25 33 45c51 59 597 652 735 799l125 132-6 61c-21 200-217 360-437 358-36 0-91-7-122-14m1177 5c-122-22-204-80-246-173l-24-52-3-987-2-987 37-7c21-3 56-10 78-15s99-12 170-15c236-12 356 24 427 127 20 30 42 72 49 94 10 30 14 273 16 1004 2 530 0 968-4 972-31 31-389 59-498 39m1246-1c-149-25-233-107-260-254-7-39-11-302-11-780 0-790 0-794 59-878 207-298 862-462 1398-351 43 9 85 17 94 19 32 6 174 66 219 92 187 108 310 262 371 463 23 75 23 76 27 866l3 791-39 11c-59 18-172 27-327 26-152 0-223-14-286-57-39-26-93-101-111-155-8-27-13-213-17-672-5-493-9-642-19-665-46-104-170-153-337-134-109 12-112 13-188 47l-67 31v1569l-27 7c-126 32-362 44-482 24m-715.59-2834.8c0 231.457-187.633 419.09-419.09 419.09s-419.089-187.633-419.089-419.09 187.633-419.089 419.09-419.089 419.09 187.633 419.09 419.09M3100 11810"/></svg>